<svg width="32" height="33" viewBox="0 0 32 33" fill="none" xmlns="http://www.w3.org/2000/svg">
<g filter="url(#filter0_ii_504_21)">
<path d="M22.0208 4.68164C26.6193 4.68164 29.3334 7.32776 29.3334 11.8574H23.6919V11.9036C21.0737 11.9036 18.9512 13.973 18.9512 16.5256C18.9512 19.0783 21.0737 21.1477 23.6919 21.1477H29.3334V21.5637C29.3334 26.0355 26.6193 28.6816 22.0208 28.6816H9.97934C5.38082 28.6816 2.66675 26.0355 2.66675 21.5637V11.7996C2.66675 7.32776 5.38082 4.68164 9.97934 4.68164H22.0208ZM28.3379 13.8449C28.8877 13.8449 29.3334 14.2794 29.3334 14.8155V18.1896C29.327 18.723 28.885 19.154 28.3379 19.1602H23.7986C22.4731 19.1776 21.3141 18.2928 21.0134 17.0341C20.8629 16.2527 21.0742 15.4464 21.5908 14.8313C22.1075 14.2161 22.8765 13.8551 23.6919 13.8449H28.3379ZM24.3319 15.4048H23.8934C23.6242 15.4017 23.3649 15.5038 23.1734 15.6884C22.9819 15.8729 22.8742 16.1245 22.8742 16.387C22.8741 16.9377 23.3286 17.386 23.8934 17.3923H24.3319C24.8949 17.3923 25.3512 16.9474 25.3512 16.3985C25.3512 15.8497 24.8949 15.4048 24.3319 15.4048ZM16.5097 9.86989H8.98378C8.42546 9.86986 7.97102 10.3078 7.96453 10.8521C7.96453 11.4028 8.41895 11.851 8.98378 11.8574H16.5097C17.0726 11.8574 17.529 11.4125 17.529 10.8636C17.529 10.3148 17.0726 9.86989 16.5097 9.86989Z" fill="#5887D1"/>
</g>
<defs>
<filter id="filter0_ii_504_21" x="1.66675" y="3.68164" width="28.6667" height="26" filterUnits="userSpaceOnUse" color-interpolation-filters="sRGB">
<feFlood flood-opacity="0" result="BackgroundImageFix"/>
<feBlend mode="normal" in="SourceGraphic" in2="BackgroundImageFix" result="shape"/>
<feColorMatrix in="SourceAlpha" type="matrix" values="0 0 0 0 0 0 0 0 0 0 0 0 0 0 0 0 0 0 127 0" result="hardAlpha"/>
<feOffset dx="1" dy="-1"/>
<feGaussianBlur stdDeviation="2"/>
<feComposite in2="hardAlpha" operator="arithmetic" k2="-1" k3="1"/>
<feColorMatrix type="matrix" values="0 0 0 0 0 0 0 0 0 0 0 0 0 0 0 0 0 0 0.15 0"/>
<feBlend mode="normal" in2="shape" result="effect1_innerShadow_504_21"/>
<feColorMatrix in="SourceAlpha" type="matrix" values="0 0 0 0 0 0 0 0 0 0 0 0 0 0 0 0 0 0 127 0" result="hardAlpha"/>
<feOffset dx="-1" dy="1"/>
<feGaussianBlur stdDeviation="2"/>
<feComposite in2="hardAlpha" operator="arithmetic" k2="-1" k3="1"/>
<feColorMatrix type="matrix" values="0 0 0 0 1 0 0 0 0 1 0 0 0 0 1 0 0 0 0.25 0"/>
<feBlend mode="normal" in2="effect1_innerShadow_504_21" result="effect2_innerShadow_504_21"/>
</filter>
</defs>
</svg>
