<svg width="32" height="32" viewBox="0 0 32 32" fill="none" xmlns="http://www.w3.org/2000/svg">
<path d="M12.5123 27.6648V23.5758C12.5122 22.5357 13.3601 21.6907 14.4107 21.6837H18.2588C19.3143 21.6837 20.17 22.5308 20.17 23.5758V27.6775C20.1697 28.5605 20.8817 29.2822 21.7734 29.3029H24.3388C26.8962 29.3029 28.9693 27.2505 28.9693 24.7187V13.0867C28.9557 12.0907 28.4833 11.1554 27.6866 10.5469L18.9129 3.54997C17.3759 2.33165 15.1909 2.33165 13.6539 3.54997L4.91869 10.5596C4.119 11.1656 3.64584 12.1025 3.63599 13.0994V24.7187C3.63599 27.2505 5.70915 29.3029 8.26653 29.3029H10.8319C11.7458 29.3029 12.4866 28.5695 12.4866 27.6648" stroke="#7E7E7E" stroke-width="1.5" stroke-linecap="round" stroke-linejoin="round"/>
</svg>
