<svg width="32" height="33" viewBox="0 0 32 33" fill="none" xmlns="http://www.w3.org/2000/svg">
<path fill-rule="evenodd" clip-rule="evenodd" d="M28.0449 10.8163L27.215 9.37623C26.5129 8.15767 24.9569 7.73729 23.7367 8.43649C23.1559 8.77866 22.4628 8.87573 21.8103 8.70631C21.1578 8.53689 20.5994 8.11489 20.2584 7.53336C20.0391 7.16373 19.9212 6.74272 19.9167 6.31292C19.9365 5.62383 19.6765 4.95607 19.196 4.46176C18.7155 3.96745 18.0554 3.68868 17.366 3.68897H15.694C15.0186 3.68897 14.3711 3.95808 13.8947 4.43679C13.4182 4.9155 13.1522 5.56432 13.1555 6.23969C13.1354 7.6341 11.9993 8.75394 10.6047 8.7538C10.1749 8.74934 9.75393 8.63146 9.3843 8.41208C8.16407 7.71288 6.60814 8.13326 5.90604 9.35182L5.01511 10.8163C4.31387 12.0334 4.72852 13.5883 5.94265 14.2946C6.73186 14.7502 7.21803 15.5923 7.21803 16.5036C7.21803 17.4149 6.73186 18.257 5.94265 18.7126C4.73006 19.4141 4.31496 20.9653 5.01511 22.1787L5.85722 23.631C6.18618 24.2246 6.73812 24.6626 7.39091 24.8481C8.0437 25.0336 8.74351 24.9514 9.33548 24.6196C9.91743 24.28 10.6109 24.1869 11.2618 24.3611C11.9126 24.5353 12.467 24.9623 12.8015 25.5471C13.0209 25.9167 13.1388 26.3377 13.1433 26.7675C13.1433 28.1763 14.2853 29.3183 15.694 29.3183H17.366C18.77 29.3183 19.91 28.1837 19.9167 26.7797C19.9135 26.1022 20.1811 25.4516 20.6602 24.9725C21.1393 24.4934 21.79 24.2257 22.4674 24.229C22.8962 24.2405 23.3155 24.3579 23.6879 24.5707C24.9049 25.272 26.4599 24.8573 27.1661 23.6432L28.0449 22.1787C28.385 21.5949 28.4783 20.8995 28.3043 20.2467C28.1302 19.5938 27.703 19.0373 27.1173 18.7004C26.5317 18.3635 26.1045 17.807 25.9304 17.1541C25.7563 16.5013 25.8497 15.806 26.1898 15.2221C26.411 14.836 26.7312 14.5158 27.1173 14.2946C28.3242 13.5887 28.7379 12.0429 28.0449 10.8286V10.8163Z" stroke="#7E7E7E" stroke-width="1.5" stroke-linecap="round" stroke-linejoin="round"/>
<path d="M16.5359 20.0181C18.477 20.0181 20.0506 18.4445 20.0506 16.5034C20.0506 14.5623 18.477 12.9888 16.5359 12.9888C14.5948 12.9888 13.0212 14.5623 13.0212 16.5034C13.0212 18.4445 14.5948 20.0181 16.5359 20.0181Z" stroke="#7E7E7E" stroke-width="1.5" stroke-linecap="round" stroke-linejoin="round"/>
</svg>
