<svg width="32" height="33" viewBox="0 0 32 33" fill="none" xmlns="http://www.w3.org/2000/svg">
<g filter="url(#filter0_ii_504_81)">
<path d="M16.9523 2.72753C17.6857 2.7142 18.3803 2.97953 18.899 3.48753C19.4203 3.97953 19.699 4.66086 19.699 5.38086C19.699 6.84753 20.9123 8.03553 22.4203 8.03553C22.8857 8.03553 23.3523 7.90086 23.767 7.6742C25.059 6.97953 26.6723 7.42086 27.4057 8.66086L28.3137 10.2209C28.5403 10.6209 28.6723 11.0742 28.6723 11.5409C28.6723 12.4875 28.1537 13.3689 27.3137 13.8342C26.899 14.0609 26.5523 14.4075 26.3137 14.8089C25.6057 16.0609 26.047 17.6462 27.3137 18.3689C28.5923 19.1009 29.0323 20.7022 28.3137 21.9675L27.4057 23.4755C26.9257 24.3009 26.0323 24.8089 25.0723 24.8089C24.5923 24.8089 24.1123 24.6875 23.7137 24.4475C23.2857 24.2209 22.8203 24.0875 22.3523 24.0875C21.6323 24.0875 20.939 24.3689 20.4337 24.8742C19.9123 25.3689 19.6323 26.0475 19.6323 26.7542C19.6323 28.2075 18.4203 29.3942 16.9123 29.3942H15.087C14.3657 29.3942 13.6857 29.1009 13.1923 28.6075C12.6857 28.1009 12.4203 27.4342 12.4203 26.7409C12.4203 25.2742 11.219 24.0875 9.71367 24.0875C9.219 24.0875 8.739 24.2209 8.32567 24.4755C7.699 24.8209 6.95233 24.9142 6.259 24.7409C5.56567 24.5542 4.96567 24.1009 4.60567 23.5009L3.75367 21.9942C3.35233 21.3689 3.23233 20.6209 3.42033 19.9142C3.60567 19.2075 4.087 18.6075 4.739 18.2475C5.15367 18.0209 5.499 17.6875 5.739 17.2742C6.43367 16.0209 5.99233 14.4475 4.739 13.7142C3.47233 12.9942 3.03233 11.4075 3.75367 10.1542L4.60567 8.66086C4.96567 8.03553 5.56567 7.58086 6.27233 7.3942C6.98033 7.20753 7.72567 7.31286 8.35234 7.6742C8.779 7.90086 9.24567 8.02086 9.71367 8.02086C10.4337 8.02086 11.1257 7.74086 11.6323 7.24753C12.139 6.7542 12.4203 6.0742 12.4203 5.38086C12.4203 3.9142 13.6323 2.72753 15.139 2.72753H16.9523ZM17.487 12.7022C16.087 12.1275 14.4723 12.4342 13.3923 13.4875C12.3257 14.5275 11.9923 16.1142 12.579 17.4755C13.1537 18.8475 14.5123 19.7409 16.0323 19.7409H16.047C17.047 19.7542 17.9803 19.3689 18.6857 18.6742C19.3923 17.9942 19.7923 17.0609 19.7923 16.0875C19.8057 14.6075 18.8857 13.2609 17.487 12.7022Z" fill="#5887D1"/>
</g>
<defs>
<filter id="filter0_ii_504_81" x="2.3335" y="1.72705" width="27.3389" height="28.667" filterUnits="userSpaceOnUse" color-interpolation-filters="sRGB">
<feFlood flood-opacity="0" result="BackgroundImageFix"/>
<feBlend mode="normal" in="SourceGraphic" in2="BackgroundImageFix" result="shape"/>
<feColorMatrix in="SourceAlpha" type="matrix" values="0 0 0 0 0 0 0 0 0 0 0 0 0 0 0 0 0 0 127 0" result="hardAlpha"/>
<feOffset dx="1" dy="-1"/>
<feGaussianBlur stdDeviation="2"/>
<feComposite in2="hardAlpha" operator="arithmetic" k2="-1" k3="1"/>
<feColorMatrix type="matrix" values="0 0 0 0 0 0 0 0 0 0 0 0 0 0 0 0 0 0 0.25 0"/>
<feBlend mode="normal" in2="shape" result="effect1_innerShadow_504_81"/>
<feColorMatrix in="SourceAlpha" type="matrix" values="0 0 0 0 0 0 0 0 0 0 0 0 0 0 0 0 0 0 127 0" result="hardAlpha"/>
<feOffset dx="-1" dy="1"/>
<feGaussianBlur stdDeviation="2"/>
<feComposite in2="hardAlpha" operator="arithmetic" k2="-1" k3="1"/>
<feColorMatrix type="matrix" values="0 0 0 0 1 0 0 0 0 1 0 0 0 0 1 0 0 0 0.25 0"/>
<feBlend mode="normal" in2="effect1_innerShadow_504_81" result="effect2_innerShadow_504_81"/>
</filter>
</defs>
</svg>
