<svg width="32" height="33" viewBox="0 0 32 33" fill="none" xmlns="http://www.w3.org/2000/svg">
<g filter="url(#filter0_ii_504_24)">
<path d="M22.2259 2.69727C26.7606 2.69727 29.3206 5.26927 29.3339 9.80393V22.2573C29.3339 26.7906 26.7606 29.3639 22.2259 29.3639H9.7739C5.23924 29.3639 2.66724 26.7906 2.66724 22.2573V9.80393C2.66724 5.26927 5.23924 2.69727 9.7739 2.69727H22.2259ZM16.6672 8.20393C16.2926 7.97727 15.8392 7.97727 15.4806 8.20393C15.1192 8.42927 14.9206 8.84393 14.9592 9.25727V22.8439C15.0272 23.4173 15.5059 23.8439 16.0659 23.8439C16.6406 23.8439 17.1192 23.4173 17.1726 22.8439V9.25727C17.2259 8.84393 17.0272 8.42927 16.6672 8.20393ZM10.4406 12.5773C10.0806 12.3506 9.6259 12.3506 9.26724 12.5773C8.9059 12.8039 8.70724 13.2159 8.74724 13.6306V22.8439C8.79924 23.4173 9.27924 23.8439 9.85257 23.8439C10.4272 23.8439 10.9059 23.4173 10.9592 22.8439V13.6306C11.0006 13.2159 10.7992 12.8039 10.4406 12.5773ZM22.7859 17.4173C22.4272 17.1906 21.9739 17.1906 21.6006 17.4173C21.2392 17.6439 21.0406 18.0426 21.0939 18.4706V22.8439C21.1472 23.4173 21.6259 23.8439 22.2006 23.8439C22.7606 23.8439 23.2392 23.4173 23.3072 22.8439V18.4706C23.3459 18.0426 23.1472 17.6439 22.7859 17.4173Z" fill="#5887D1"/>
</g>
<defs>
<filter id="filter0_ii_504_24" x="1.66724" y="1.69727" width="28.6667" height="28.6665" filterUnits="userSpaceOnUse" color-interpolation-filters="sRGB">
<feFlood flood-opacity="0" result="BackgroundImageFix"/>
<feBlend mode="normal" in="SourceGraphic" in2="BackgroundImageFix" result="shape"/>
<feColorMatrix in="SourceAlpha" type="matrix" values="0 0 0 0 0 0 0 0 0 0 0 0 0 0 0 0 0 0 127 0" result="hardAlpha"/>
<feOffset dx="1" dy="-1"/>
<feGaussianBlur stdDeviation="2"/>
<feComposite in2="hardAlpha" operator="arithmetic" k2="-1" k3="1"/>
<feColorMatrix type="matrix" values="0 0 0 0 0 0 0 0 0 0 0 0 0 0 0 0 0 0 0.25 0"/>
<feBlend mode="normal" in2="shape" result="effect1_innerShadow_504_24"/>
<feColorMatrix in="SourceAlpha" type="matrix" values="0 0 0 0 0 0 0 0 0 0 0 0 0 0 0 0 0 0 127 0" result="hardAlpha"/>
<feOffset dx="-1" dy="1"/>
<feGaussianBlur stdDeviation="2"/>
<feComposite in2="hardAlpha" operator="arithmetic" k2="-1" k3="1"/>
<feColorMatrix type="matrix" values="0 0 0 0 1 0 0 0 0 1 0 0 0 0 1 0 0 0 0.25 0"/>
<feBlend mode="normal" in2="effect1_innerShadow_504_24" result="effect2_innerShadow_504_24"/>
</filter>
</defs>
</svg>
